# xmcd
#
# Track frame offsets:
#	150
#	3521
#	25144
#	33695
#	53000
#	69210
#	80106
#	95591
#	102192
#	122852
#	143432
#	149413
#	171321
#	191502
#
# Disc length: 2589 seconds
#
# Revision: 0
# Processed by: cddbd v1.5.2PL0 Copyright (c) Steve Scherf et al.
# Submitted via: EasyCDDAExtractor 10.0.5.1
#
DISCID=be0a1b0e
DTITLE=Sandy - Tagh
DYEAR=2004
DGENRE=Pop
TTITLE0=Moghadameh
TTITLE1=Jaadeh Eshgh
TTITLE2=Dar Bongaah Ma'amolati
TTITLE3=Yaa Rehn Yaa Ejaareh
TTITLE4=Matalak
TTITLE5=Tamaas Telefoni
TTITLE6=Sara
TTITLE7=Video
TTITLE8=Shiva
TTITLE9=Television
TTITLE10=Laghab
TTITLE11=Arous Posti
TTITLE12=Biyaa Biyaa
TTITLE13=Koroush Mihanad ~ji
EXTD=
EXTT0=
EXTT1=
EXTT2=
EXTT3=
EXTT4=
EXTT5=
EXTT6=
EXTT7=
EXTT8=
EXTT9=
EXTT10=
EXTT11=
EXTT12=
EXTT13=
PLAYORDER=
